<svg xmlns="http://www.w3.org/2000/svg" width="24" height="24" fill="none" viewBox="0 0 24 24"><g clip-path="url(#a)"><rect width="24" height="24" fill="#fff" rx="5"/><path fill="#3f3c39" d="M0 0h24v24H0z"/><path fill="#faff5c" d="m12.953 2.296.003 7.095c0 1.12-1.192 1.84-2.183 1.316L3.66 6.945a9.8 9.8 0 0 1 2.016-2.366l5.578 5.156c.296.273.762-.023.64-.407L9.73 2.516a9.8 9.8 0 0 1 3.222-.22M11.023 21.701l-.003-7.058c-.001-1.121 1.191-1.84 2.182-1.316l7.115 3.763a9.8 9.8 0 0 1-2.025 2.358l-5.57-5.149c-.296-.273-.762.023-.64.407l2.154 6.786a9.8 9.8 0 0 1-3.213.21M14.27 11.284l5.166-5.59a9.8 9.8 0 0 0-2.366-2.023l-3.772 7.132a1.487 1.487 0 0 0 1.315 2.182l7.088-.003a9.9 9.9 0 0 0-.21-3.222l-6.815 2.164c-.383.121-.68-.345-.406-.64M2.296 11.051l7.066-.003a1.487 1.487 0 0 1 1.316 2.183l-3.753 7.095a9.8 9.8 0 0 1-2.358-2.017l5.139-5.56c.273-.295-.023-.76-.407-.639l-6.784 2.154a9.8 9.8 0 0 1-.219-3.213"/></g><defs><clipPath id="a"><rect width="24" height="24" fill="#fff" rx="5"/></clipPath></defs></svg>