<svg xmlns="http://www.w3.org/2000/svg" width="57" height="14" fill="none" viewBox="0 0 57 14"><g fill="#000" clip-path="url(#a)"><path d="M18.282 3.877c-1.16 0-1.929.483-2.343 1.385l-.03-1.246h-1.794v9.985h1.98V10.24c.437.732 1.16 1.136 2.187 1.136 1.958 0 3.214-1.488 3.214-3.76 0-2.258-1.256-3.739-3.214-3.739m-.466 5.761c-1.072 0-1.788-.835-1.788-2.023 0-1.187.71-1.978 1.788-1.978s1.684.761 1.684 1.978-.613 2.023-1.684 2.023M25.848 3.877c-2.358 0-3.732 1.554-3.732 3.745 0 2.192 1.381 3.754 3.732 3.754s3.725-1.56 3.725-3.754-1.367-3.745-3.725-3.745m0 5.754c-1.08 0-1.773-.777-1.773-2.009s.702-1.993 1.773-1.993 1.759.763 1.759 1.993c0 1.231-.68 2.01-1.76 2.01M32.17 1.142h-1.98v10.234h1.98zM34.797 1.142h-1.98v10.234h1.98zM39.156 3.877c-2.358 0-3.732 1.554-3.732 3.745 0 2.192 1.381 3.754 3.732 3.754s3.724-1.56 3.724-3.754-1.367-3.745-3.724-3.745m0 5.754c-1.08 0-1.774-.777-1.774-2.009s.702-1.993 1.774-1.993 1.759.763 1.759 1.993c0 1.231-.68 2.01-1.759 2.01M44.512 9.236c-.581 0-1.082.477-1.082 1.066s.5 1.072 1.082 1.072 1.082-.483 1.082-1.072-.5-1.066-1.082-1.066M47.356 1.077c-.65 0-1.213.52-1.213 1.166 0 .644.546 1.172 1.213 1.172.666 0 1.227-.528 1.227-1.172 0-.645-.577-1.166-1.227-1.166M48.354 4.155h-1.98v7.221h1.98zM52.793 3.877c-2.358 0-3.732 1.554-3.732 3.745 0 2.192 1.38 3.754 3.732 3.754 2.35 0 3.723-1.56 3.723-3.754s-1.367-3.745-3.723-3.745m0 5.754c-1.078 0-1.774-.777-1.774-2.009s.701-1.993 1.774-1.993 1.758.763 1.758 1.993c0 1.231-.68 2.01-1.758 2.01M11.574 1.709H9.628l1.01 1.715zM7.37-.008.485 11.372h3.688c.493 0 .977-.124 1.404-.357.462-.252.811-.618 1.083-1.062.319-.52.629-1.044.942-1.566l.803-1.337-1.036-1.72-.459.731c-.523.868-1.019 1.756-1.56 2.612-.273.43-.63.836-1.154.94q-.119.023-.242.027c-.108.004-.216.001-.324.001l3.742-6.315 4.801 8.07h1.39v-1.185l-.033-.053z"/></g><defs><clipPath id="a"><path fill="#fff" d="M0 0h57v14H0z"/></clipPath></defs></svg>