<svg xmlns="http://www.w3.org/2000/svg" width="22" height="23" fill="none" viewBox="0 0 22 23"><g fill="#1991eb" clip-path="url(#a)"><rect width="3.333" height="4" y="14" rx="1.667"/><rect width="3.333" height="8" x="5.333" y="10" rx="1.667"/><rect width="3.333" height="14" x="10.667" y="4" rx="1.667"/></g><path fill="#1991eb" d="M18.896 10.752a1 1 0 0 1 .098-.12.82.82 0 0 1 .579-.237.83.83 0 0 1 .579.237.8.8 0 0 1 .236.568.8.8 0 0 1-.049.304.72.72 0 0 1-.44.432.78.78 0 0 1-.62 0 .73.73 0 0 1-.44-.432.66.66 0 0 1-.065-.304 1 1 0 0 1 0-.16.5.5 0 0 1 .049-.144q.027-.077.073-.144M18.35 4.321c.371-.21.793-.321 1.223-.321a2.47 2.47 0 0 1 1.565.57c.437.365.73.869.827 1.423a2.36 2.36 0 0 1-.296 1.612 2.44 2.44 0 0 1-1.28 1.05V8.8a.8.8 0 0 1-.24.566.823.823 0 0 1-1.152 0 .8.8 0 0 1-.24-.566V8c0-.212.087-.416.24-.566a.82.82 0 0 1 .576-.234.82.82 0 0 0 .576-.234.79.79 0 0 0 0-1.132.827.827 0 0 0-1.286.166.8.8 0 0 1-.495.397.83.83 0 0 1-.879-.288.8.8 0 0 1-.152-.61.8.8 0 0 1 .116-.299c.215-.365.524-.668.896-.879"/><defs><clipPath id="a"><path fill="#fff" d="M0 4h14v14H0z"/></clipPath></defs></svg>