<svg xmlns="http://www.w3.org/2000/svg" width="16" height="16" fill="none" viewBox="0 0 16 16"><path fill="#2b2926" d="m8.684 1.033.002 5.094c0 .805-.856 1.32-1.567.944l-5.106-2.7c.389-.641.879-1.214 1.447-1.699l4.004 3.702c.213.196.547-.017.46-.292L6.37 1.19a7 7 0 0 1 2.313-.158M7.298 14.965l-.002-5.068c0-.805.856-1.32 1.567-.944l5.109 2.702a7 7 0 0 1-1.455 1.692l-4-3.696c-.211-.197-.546.016-.459.291l1.548 4.873a7 7 0 0 1-2.308.15M9.63 7.486l3.708-4.013A7 7 0 0 0 11.64 2.02L8.932 7.14c-.377.712.14 1.568.944 1.567l5.089-.002a7.1 7.1 0 0 0-.151-2.313L9.921 7.945c-.275.087-.488-.247-.292-.46M1.033 7.319l5.073-.002c.805 0 1.321.855.945 1.567l-2.695 5.094a7 7 0 0 1-1.692-1.448l3.689-3.992c.196-.212-.017-.546-.292-.459l-4.87 1.547a7 7 0 0 1-.158-2.307"/></svg>