<svg xmlns="http://www.w3.org/2000/svg" width="32" height="32" fill="none" viewBox="0 0 32 32"><path fill="#3f3c39" d="m17.368 2.067.004 10.187c0 1.61-1.711 2.641-3.134 1.889L4.025 8.74A14 14 0 0 1 6.92 5.344l8.01 7.403c.424.392 1.093-.033.919-.584L12.74 2.382a14 14 0 0 1 4.627-.315M14.597 29.93l-.005-10.136c0-1.609 1.712-2.64 3.134-1.888l10.217 5.403a14 14 0 0 1-2.908 3.385l-8-7.393c-.424-.392-1.093.033-.918.584l3.094 9.745a14 14 0 0 1-4.614.3M19.259 14.972l7.418-8.026A14 14 0 0 0 23.28 4.04l-5.417 10.24c-.752 1.423.28 3.136 1.89 3.135l10.177-.005a14.2 14.2 0 0 0-.302-4.627l-9.785 3.107c-.551.175-.976-.494-.584-.918M2.066 14.638l10.147-.005c1.61 0 2.641 1.712 1.889 3.135l-5.39 10.188a14 14 0 0 1-3.385-2.896l7.379-7.983c.392-.425-.033-1.094-.584-.919L2.38 19.251a14 14 0 0 1-.314-4.613"/></svg>