<svg xmlns="http://www.w3.org/2000/svg" width="273" height="191" viewBox="0 0 273 191"><path fill="#1991eb" fill-rule="nonzero" d="M113.3 21.2c8.8-9.1 21-14.8 34.5-14.8 18 0 33.6 10 42 24.9 7.3-3.2 15.3-5 23.7-5 32.4 0 58.7 26.5 58.7 59.2s-26.3 59.2-58.7 59.2c-4 0-7.8-.4-11.6-1.2-7.3 13.1-21.4 22-37.4 22-6.7 0-13.1-1.6-18.8-4.3-7.5 17.5-24.8 29.8-45 29.8-21.1 0-39-13.3-45.9-32-3 .6-6.1 1-9.3 1C20.4 160 .1 139.4.1 114.1c0-17 9.1-31.8 22.7-39.8-2.8-6.4-4.3-13.5-4.3-21C18.5 24.1 42.2.5 71.4.5c17 0 32.2 8.1 41.9 20.7"/></svg>