<svg xmlns="http://www.w3.org/2000/svg" width="20" height="22" fill="none" viewBox="0 0 20 22"><path fill="#242d3e" fill-rule="evenodd" d="M5.05 2.05A7 7 0 0 1 17 7c0 3.353.717 5.435 1.378 6.646.332.608.655 1.007.88 1.244a3 3 0 0 0 .306.284l.002.002A1 1 0 0 1 19 17H1a1 1 0 0 1-.563-1.826l.052-.042c.053-.044.141-.123.254-.242.224-.237.547-.636.88-1.244C2.282 12.435 3 10.353 3 7a7 7 0 0 1 2.05-4.95M3.15 15h13.702a9 9 0 0 1-.229-.396C15.783 13.065 15 10.647 15 7A5 5 0 0 0 5 7c0 3.647-.783 6.065-1.622 7.604q-.115.21-.229.396m4.62 4.135a1 1 0 0 1 1.366.363 1 1 0 0 0 1.73 0 1 1 0 1 1 1.73 1.004 3 3 0 0 1-5.19 0 1 1 0 0 1 .363-1.367" clip-rule="evenodd"/></svg>