<svg xmlns="http://www.w3.org/2000/svg" width="20" height="20" fill="none" viewBox="0 0 20 20"><path fill="#242d3e" d="M19.21 6.78 12 .78a2.83 2.83 0 0 0-3.9 0L.89 6.74A2.6 2.6 0 0 0 0 8.67v8.58a2.75 2.75 0 0 0 2.78 2.71h14.44A2.75 2.75 0 0 0 20 17.25V8.67a2.67 2.67 0 0 0-.79-1.89M9.44 2.22a.83.83 0 0 1 1.12 0L17 7.46l-6.47 5.32a.83.83 0 0 1-1.12 0L3 7.46zM18 17.25a.76.76 0 0 1-.78.71H2.78a.76.76 0 0 1-.78-.71V9.31l5.05 3.94-1.66 1.6a1 1 0 0 0 0 1.41 1 1 0 0 0 .72.31 1 1 0 0 0 .69-.28l1.77-1.7a2.8 2.8 0 0 0 2.92 0l1.77 1.7a1 1 0 0 0 .69.28 1 1 0 0 0 .72-.31 1 1 0 0 0 0-1.41L13 13.25l5-3.94z"/></svg>