<svg xmlns="http://www.w3.org/2000/svg" width="21" height="16" fill="none" viewBox="0 0 21 16"><path fill="#242d3e" d="M20.913 7.6C18.893 2.91 15.095 0 10.996 0 6.898 0 3.1 2.91 1.08 7.6a1 1 0 0 0 0 .8C3.1 13.09 6.898 16 10.997 16c4.098 0 7.897-2.91 9.916-7.6a1 1 0 0 0 0-.8M10.996 14C7.828 14 4.83 11.71 3.1 8c1.73-3.71 4.729-6 7.897-6 3.17 0 6.168 2.29 7.898 6-1.73 3.71-4.729 6-7.897 6m0-10a3.998 3.998 0 0 0-3.921 4.78 4 4 0 0 0 5.452 2.915A3.999 3.999 0 0 0 10.997 4m0 6a1.999 1.999 0 1 1 0-3.998 1.999 1.999 0 0 1 0 3.998"/></svg>