<svg xmlns="http://www.w3.org/2000/svg" width="233" height="153" fill="none" viewBox="0 0 233 153"><circle cx="49" cy="57" r="16" fill="#d3dae3"/><rect width="72.222" height="11.556" x="75" y="44" fill="#d3dae3" rx="5.778"/><rect width="152.389" height="8.667" x="75" y="61.333" fill="#e4eaf0" rx="4.333"/><g filter="url(#a)"><rect width="18" height="18" x="3" y="48" fill="#fff" rx="4"/><rect width="16.5" height="16.5" x="3.75" y="48.75" stroke="#d3dae3" stroke-width="1.5" rx="3.25"/></g><g opacity=".5"><circle cx="49" cy="97" r="16" fill="#d3dae3"/><rect width="72.222" height="11.556" x="75" y="84" fill="#d3dae3" rx="5.778"/><rect width="152.389" height="8.667" x="75" y="101.333" fill="#e4eaf0" rx="4.333"/><g filter="url(#b)"><rect width="18" height="18" x="3" y="88" fill="#fff" rx="4"/><rect width="16.5" height="16.5" x="3.75" y="88.75" stroke="#d3dae3" stroke-width="1.5" rx="3.25"/></g></g><g opacity=".2"><circle cx="49" cy="137" r="16" fill="#d3dae3"/><rect width="72.222" height="11.556" x="75" y="124" fill="#d3dae3" rx="5.778"/><rect width="152.389" height="8.667" x="75" y="141.333" fill="#e4eaf0" rx="4.333"/><g filter="url(#c)"><rect width="18" height="18" x="3" y="128" fill="#fff" rx="4"/><rect width="16.5" height="16.5" x="3.75" y="128.75" stroke="#d3dae3" stroke-width="1.5" rx="3.25"/></g></g><path fill="#1991eb" d="M230 0H6a3 3 0 0 0-3 3v21a3 3 0 0 0 3 3h224a3 3 0 0 0 3-3V3a3 3 0 0 0-3-3"/><g filter="url(#d)"><rect width="18" height="18" x="10" y="4" fill="#fff" rx="4"/></g><path fill="#fff" d="M44.07 11.145h1.649c-.033-1.598-1.394-2.729-3.407-2.729-1.985 0-3.476 1.117-3.472 2.788 0 1.358.965 2.138 2.52 2.54l1.076.277c1.02.258 1.695.577 1.7 1.31-.005.809-.772 1.349-1.889 1.349-1.07 0-1.902-.48-1.971-1.473H38.59c.07 1.879 1.468 2.936 3.67 2.936 2.267 0 3.582-1.13 3.587-2.798-.005-1.638-1.357-2.386-2.78-2.723l-.886-.222c-.775-.184-1.615-.512-1.606-1.302.005-.71.642-1.232 1.713-1.232 1.02 0 1.694.475 1.782 1.279m6.37 6.994c1.653 0 2.789-.808 3.084-2.041l-1.56-.175c-.227.6-.78.914-1.5.914-1.08 0-1.797-.711-1.81-1.925h4.94v-.513c0-2.488-1.496-3.582-3.242-3.582-2.03 0-3.356 1.49-3.356 3.68 0 2.224 1.307 3.642 3.444 3.642m-1.782-4.354c.051-.905.72-1.666 1.718-1.666.96 0 1.606.701 1.615 1.666zm8.02-5.24h-1.67V18h1.67zm4.858 9.594c1.653 0 2.788-.808 3.084-2.041l-1.56-.175c-.227.6-.78.914-1.501.914-1.08 0-1.796-.711-1.81-1.925h4.94v-.513c0-2.488-1.496-3.582-3.24-3.582-2.032 0-3.357 1.49-3.357 3.68 0 2.224 1.306 3.642 3.444 3.642m-1.782-4.354c.05-.905.72-1.666 1.717-1.666.96 0 1.607.701 1.616 1.666zm9.442 4.354c1.782 0 2.918-1.058 3.038-2.563h-1.598c-.143.762-.692 1.2-1.426 1.2-1.044 0-1.718-.872-1.718-2.322 0-1.43.688-2.29 1.718-2.29.803 0 1.297.518 1.426 1.201h1.598c-.116-1.537-1.316-2.548-3.047-2.548-2.078 0-3.389 1.5-3.389 3.665 0 2.147 1.279 3.657 3.398 3.657m7.95-7.23h-1.398V9.21h-1.671v1.7H73.07v1.292h1.007v3.942c-.01 1.334.96 1.99 2.216 1.953.475-.014.803-.106.983-.166l-.282-1.307a2 2 0 0 1-.49.065c-.42 0-.756-.148-.756-.822v-3.665h1.399zM83.057 18l.781-2.331h3.555L88.177 18h1.828L86.67 8.545h-2.114L81.23 18zm1.243-3.707 1.278-3.809h.074l1.279 3.809zm8.548-5.748h-1.671V18h1.671zm3.39 0h-1.671V18h1.67z"/><defs><filter id="a" width="24" height="24" x="0" y="46" color-interpolation-filters="sRGB" filterUnits="userSpaceOnUse"><feFlood flood-opacity="0" result="BackgroundImageFix"/><feColorMatrix in="SourceAlpha" values="0 0 0 0 0 0 0 0 0 0 0 0 0 0 0 0 0 0 127 0"/><feOffset dy="1"/><feGaussianBlur stdDeviation="1.5"/><feColorMatrix values="0 0 0 0 0 0 0 0 0 0 0 0 0 0 0 0 0 0 0.05 0"/><feBlend in2="BackgroundImageFix" mode="multiply" result="effect1_dropShadow"/><feBlend in="SourceGraphic" in2="effect1_dropShadow" result="shape"/></filter><filter id="b" width="24" height="24" x="0" y="86" color-interpolation-filters="sRGB" filterUnits="userSpaceOnUse"><feFlood flood-opacity="0" result="BackgroundImageFix"/><feColorMatrix in="SourceAlpha" values="0 0 0 0 0 0 0 0 0 0 0 0 0 0 0 0 0 0 127 0"/><feOffset dy="1"/><feGaussianBlur stdDeviation="1.5"/><feColorMatrix values="0 0 0 0 0 0 0 0 0 0 0 0 0 0 0 0 0 0 0.05 0"/><feBlend in2="BackgroundImageFix" mode="multiply" result="effect1_dropShadow"/><feBlend in="SourceGraphic" in2="effect1_dropShadow" result="shape"/></filter><filter id="c" width="24" height="24" x="0" y="126" color-interpolation-filters="sRGB" filterUnits="userSpaceOnUse"><feFlood flood-opacity="0" result="BackgroundImageFix"/><feColorMatrix in="SourceAlpha" values="0 0 0 0 0 0 0 0 0 0 0 0 0 0 0 0 0 0 127 0"/><feOffset dy="1"/><feGaussianBlur stdDeviation="1.5"/><feColorMatrix values="0 0 0 0 0 0 0 0 0 0 0 0 0 0 0 0 0 0 0.05 0"/><feBlend in2="BackgroundImageFix" mode="multiply" result="effect1_dropShadow"/><feBlend in="SourceGraphic" in2="effect1_dropShadow" result="shape"/></filter><filter id="d" width="24" height="24" x="7" y="2" color-interpolation-filters="sRGB" filterUnits="userSpaceOnUse"><feFlood flood-opacity="0" result="BackgroundImageFix"/><feColorMatrix in="SourceAlpha" values="0 0 0 0 0 0 0 0 0 0 0 0 0 0 0 0 0 0 127 0"/><feOffset dy="1"/><feGaussianBlur stdDeviation="1.5"/><feColorMatrix values="0 0 0 0 0 0 0 0 0 0 0 0 0 0 0 0 0 0 0.05 0"/><feBlend in2="BackgroundImageFix" mode="multiply" result="effect1_dropShadow"/><feBlend in="SourceGraphic" in2="effect1_dropShadow" result="shape"/></filter></defs></svg>