<svg xmlns="http://www.w3.org/2000/svg" width="160" height="110" fill="none" viewBox="0 0 160 110"><g clip-path="url(#a)"><path fill="#1991eb" d="M155.832 1H3.934a3 3 0 0 0-3 3v21.045a3 3 0 0 0 3 3h151.898a3 3 0 0 0 3-3V4a3 3 0 0 0-3-3"/><path fill="#8cccfa" d="M120.632 6.49h-110v16.095h110z"/><path fill="url(#b)" d="M127.396 11.718c-.683 0-.684 1.062 0 1.062s.685-1.062 0-1.062"/><path fill="url(#c)" d="M132.162 8.314a5.11 5.11 0 0 0-4.405 2.275c-.29.455.534.856.823.404.737-1.154 2.138-1.886 3.652-1.848a4.65 4.65 0 0 1 3.798 2.208c.29.479 1.051.044.762-.431-.927-1.529-2.729-2.565-4.63-2.608"/><path fill="#fff" d="M145.676 8.655a5.392 5.392 0 0 0-9.246 3.16 5.39 5.39 0 0 0 2.573 5.19 5.39 5.39 0 0 0 5.791-.139l3.897 4.053a.26.26 0 0 0 .371.008l.971-.934a.26.26 0 0 0 .007-.37l-3.897-4.054a5.39 5.39 0 0 0-.467-6.914m-1.214 6.516a3.857 3.857 0 0 1-5.835-4.985 3.856 3.856 0 1 1 5.835 4.985"/><path fill="#6c63ff" d="M127.396 10.783c-.683 0-.684 1.063 0 1.063s.685-1.063 0-1.063"/><path fill="#e4eaf0" d="M160 35.151H.9v10.827H160zM160 53.319H.9v10.826H160z"/><path fill="#eff3f7" d="M160 71.486H.9v10.826H160z"/><path fill="#f7f9fb" d="M160 89.653H.9v10.826H160z"/></g><defs><linearGradient id="b" x1="127.396" x2="127.396" y1="12.78" y2="11.717" gradientUnits="userSpaceOnUse"><stop stop-opacity=".12"/><stop offset=".551" stop-opacity=".09"/><stop offset="1" stop-opacity=".02"/></linearGradient><linearGradient id="c" x1="8233.53" x2="8233.53" y1="706" y2="648.473" gradientUnits="userSpaceOnUse"><stop stop-opacity=".12"/><stop offset=".551" stop-opacity=".09"/><stop offset="1" stop-opacity=".02"/></linearGradient><clipPath id="a"><path fill="#fff" d="M0 0h160v109.479H0z"/></clipPath></defs></svg>