<svg xmlns="http://www.w3.org/2000/svg" width="99" height="107" fill="none" viewBox="0 0 99 107"><path fill="#c7dcfc" fill-rule="evenodd" d="M77.77 26.08H16.322V16.7H77.77c11.655 0 21.103 9.447 21.103 21.102 0 11.654-9.448 21.103-21.103 21.103H24.3c-7.514 0-13.605 6.09-13.605 13.605 0 7.514 6.091 13.605 13.605 13.605h42.076v9.38H24.3c-12.695 0-22.986-10.29-22.986-22.985S11.605 49.524 24.3 49.524h53.47c6.473 0 11.721-5.248 11.721-11.722S84.243 26.08 77.77 26.08" clip-rule="evenodd"/><path fill="#02c697" d="M98.597 84.668c0 11.967-9.872 21.668-22.049 21.668S54.5 96.636 54.5 84.668 64.371 63 76.548 63s22.049 9.701 22.049 21.668"/><path fill="#fff" d="M88.495 77.034a1.7 1.7 0 0 0-.555-.399 1.6 1.6 0 0 0-1.31 0 1.7 1.7 0 0 0-.555.399L73.379 90.628l-5.333-5.722a1.7 1.7 0 0 0-.572-.393 1.64 1.64 0 0 0-1.332.025c-.21.097-.4.238-.559.414a1.9 1.9 0 0 0-.367.611 1.98 1.98 0 0 0 .023 1.425c.09.224.222.427.387.597l6.544 6.998c.158.17.346.306.554.399a1.6 1.6 0 0 0 1.31 0c.209-.093.397-.228.555-.4l13.906-14.87c.173-.17.31-.377.405-.607a1.93 1.93 0 0 0 0-1.463 1.8 1.8 0 0 0-.405-.608"/><rect width="39" height="39" x=".5" fill="#146ef6" rx="9"/><path fill="#fff" fill-rule="evenodd" d="M10.813 28h3.944V15.31h-3.944zm3.588-15.099c.428-.428.67-1.008.672-1.613a2.29 2.29 0 0 0-2.732-2.244 2.287 2.287 0 0 0 .447 4.53 2.3 2.3 0 0 0 1.613-.673M25.591 28h3.94l.002-6.962c0-3.418-.737-6.045-4.73-6.045a4.15 4.15 0 0 0-3.733 2.05h-.053V15.31h-3.783V28h3.94v-6.277c0-1.656.314-3.259 2.367-3.259 2.023 0 2.05 1.894 2.05 3.366z" clip-rule="evenodd"/></svg>