<svg xmlns="http://www.w3.org/2000/svg" width="159" height="126" fill="none" viewBox="0 0 159 126"><path fill="#e75571" d="M111.5 32c0 17.673-14.327 32-32 32s-32-14.327-32-32 14.327-32 32-32 32 14.327 32 32"/><path fill="#fff" d="M82.723 32.71a6 6 0 0 0 2.057-3.025 5.97 5.97 0 0 0-.088-3.65 6 6 0 0 0-2.2-2.923 6.05 6.05 0 0 0-6.995 0 6 6 0 0 0-2.2 2.923 5.97 5.97 0 0 0-.088 3.65 6 6 0 0 0 2.057 3.024 10.04 10.04 0 0 0-4.262 3.228 9.96 9.96 0 0 0-1.989 4.948 1 1 0 0 0 .216.739 1.012 1.012 0 0 0 1.794-.52 7.98 7.98 0 0 1 2.631-5.068 8.06 8.06 0 0 1 5.358-2.034c1.977 0 3.885.724 5.359 2.034a7.98 7.98 0 0 1 2.63 5.069 1.008 1.008 0 0 0 1.005.89h.111c.264-.031.504-.164.67-.37a1 1 0 0 0 .215-.73 9.96 9.96 0 0 0-2-4.96 10.04 10.04 0 0 0-4.281-3.226M78.994 32a4.04 4.04 0 0 1-2.233-.674 4 4 0 0 1-1.48-1.794 3.98 3.98 0 0 1 .871-4.357 4.04 4.04 0 0 1 4.38-.867 4 4 0 0 1 1.805 1.473 3.98 3.98 0 0 1-.5 5.048 4.03 4.03 0 0 1-2.843 1.17"/><rect width="159" height="24" y="72" fill="#d1c3fd" rx="5.835"/><path fill="#7456da" d="M19.25 78H8.75a2.25 2.25 0 0 0-2.25 2.25v7.5A2.25 2.25 0 0 0 8.75 90h10.5a2.25 2.25 0 0 0 2.25-2.25v-7.5A2.25 2.25 0 0 0 19.25 78m-.308 1.5-4.41 4.41a.75.75 0 0 1-1.065 0l-4.41-4.41zM20 87.75a.75.75 0 0 1-.75.75H8.75a.75.75 0 0 1-.75-.75v-7.192l4.41 4.41a2.25 2.25 0 0 0 3.18 0l4.41-4.41z"/><path fill="#7456da" fill-rule="evenodd" d="M151 85H28v-2h123z" clip-rule="evenodd"/><rect width="159" height="24" y="102" fill="#85eea9" rx="5.835"/><path fill="#0c5e27" d="M14 114.75a1.117 1.117 0 0 0-.75 1.958v1.042a.75.75 0 0 0 .75.75.75.75 0 0 0 .75-.75v-1.042a1.12 1.12 0 0 0 .307-1.24A1.11 1.11 0 0 0 14 114.75m3.75-3v-1.5a3.752 3.752 0 0 0-6.402-2.652 3.75 3.75 0 0 0-1.098 2.652v1.5A2.25 2.25 0 0 0 8 114v5.25a2.25 2.25 0 0 0 2.25 2.25h7.5a2.25 2.25 0 0 0 2.25-2.25V114a2.25 2.25 0 0 0-2.25-2.25m-6-1.5a2.25 2.25 0 1 1 4.5 0v1.5h-4.5zm6.75 9a.75.75 0 0 1-.75.75h-7.5a.75.75 0 0 1-.75-.75V114a.75.75 0 0 1 .75-.75h7.5a.75.75 0 0 1 .75.75zM31 114a2 2 0 1 1-4 0 2 2 0 0 1 4 0M41 114a2 2 0 1 1-4 0 2 2 0 0 1 4 0M51 114a2 2 0 1 1-4 0 2 2 0 0 1 4 0M61 114a2 2 0 1 1-4 0 2 2 0 0 1 4 0M71 114a2 2 0 1 1-4 0 2 2 0 0 1 4 0M81 114a2 2 0 1 1-4 0 2 2 0 0 1 4 0M91 114a2 2 0 1 1-4 0 2 2 0 0 1 4 0M101 114a2 2 0 1 1-3.999.001A2 2 0 0 1 101 114M111 114a2 2 0 1 1-3.999.001A2 2 0 0 1 111 114M121 114a2 2 0 1 1-3.999.001A2 2 0 0 1 121 114M131 114a2 2 0 1 1-3.999.001A2 2 0 0 1 131 114M141 114a2 2 0 1 1-3.999.001A2 2 0 0 1 141 114M151 114a2 2 0 1 1-3.999.001A2 2 0 0 1 151 114"/></svg>