<svg xmlns="http://www.w3.org/2000/svg" width="126" height="125" fill="none" viewBox="0 0 126 125"><g clip-path="url(#a)"><path fill="#000" stroke="#000" stroke-width=".625" d="M25.5 55.313 63 17.188l37.5 38.125v55.025h-75z"/><path fill="#fff" stroke="#000" stroke-width=".625" d="M25.5 58.365a7.5 7.5 0 0 1 2.132-5.237L63 16.875l35.368 36.253a7.5 7.5 0 0 1 2.132 5.237v26.973c0 13.807-11.193 25-25 25H33a7.5 7.5 0 0 1-7.5-7.5z"/><path fill="#000" stroke="#000" stroke-linejoin="bevel" stroke-width=".625" d="M100.62 55.938H25.813L54.25 85 63 76.25 71.75 85z"/><path fill="#000" stroke="#000" stroke-width=".625" d="M94.563 19.375v42.684L71.74 84.879l-8.528-7.92-.213-.198-.213.198-8.527 7.918-22.822-23.13V19.374z"/><path fill="#e8e2d8" stroke="#000" stroke-width=".625" d="M94.563 19.375v42.683L77.49 79.128a8.44 8.44 0 0 1-11.39.498l-.317-.28-2.571-2.387-.213-.198-.213.198-2.53 2.349a8.44 8.44 0 0 1-11.44.038l-.306-.295-17.074-17.305V19.375z"/><path fill="#000" stroke="#000" stroke-width=".625" d="M100.053 110.312H26.947L63.5 76.363z"/><path fill="#fff" stroke="#000" stroke-width=".625" d="M100.053 110.312H26.947L63.5 76.363z"/><path fill="#000" fill-rule="evenodd" d="M62.997 33.125a5.87 5.87 0 0 0-5.868 5.868v.008a5.87 5.87 0 0 0 3.23 5.243h-5.484V55.35h1.25v-4.856a5 5 0 0 1 5-5h3.744a5 5 0 0 1 5 5v4.856h1.25V44.244h-5.484A5.87 5.87 0 0 0 68.865 39v-.008a5.87 5.87 0 0 0-5.868-5.868m-4.618 5.868a4.618 4.618 0 0 1 9.236 0v.008a4.618 4.618 0 0 1-9.236 0z" clip-rule="evenodd"/></g><defs><clipPath id="a"><path fill="#fff" d="M.5 0h125v125H.5z"/></clipPath></defs></svg>