<svg xmlns="http://www.w3.org/2000/svg" width="47" height="53" fill="none" viewBox="0 0 47 53"><path fill="#ff7d1f" d="M27.82 36.52a1.638 1.638 0 0 1 2.316-2.317l11.571 11.572a1.638 1.638 0 1 1-2.316 2.316z"/><path fill="#ff7d1f" d="M27.82 36.52a1.638 1.638 0 0 1 2.316-2.317l11.571 11.572a1.638 1.638 0 1 1-2.316 2.316z"/><path fill="#4c2306" d="M35.398 45.565a2.78 2.78 0 1 1 3.932-3.933l5.327 5.326a2.78 2.78 0 1 1-3.933 3.933z"/><path fill="#ff7d1f" fill-rule="evenodd" d="M17.713 40.12c9.279 0 16.8-7.522 16.8-16.8s-7.521-16.8-16.8-16.8-16.8 7.522-16.8 16.8 7.522 16.8 16.8 16.8m-.04-3.233c7.515 0 13.607-6.032 13.607-13.472S25.188 9.944 17.674 9.944 4.068 15.975 4.068 23.415s6.091 13.472 13.606 13.472" clip-rule="evenodd"/><g fill="#4c2306" fill-rule="evenodd" clip-rule="evenodd"><path d="m37.687 5.349-4.02 4.02-.452-.452 4.02-4.02a.32.32 0 1 1 .452.452M31.764 1.483l-1.471 5.491-.618-.165 1.471-5.492a.32.32 0 1 1 .618.166M41.056 14.017H35.37v-.64h5.685a.32.32 0 1 1 0 .64"/></g><path fill="#793a0c" d="M16.265 26.243a4 4 0 0 1-.077-.792q0-.771.348-1.466.347-.714 1.177-1.331l.926-.695q.83-.618.83-1.525 0-.327-.116-.636a1.4 1.4 0 0 0-.367-.56 1.5 1.5 0 0 0-.598-.386 2.2 2.2 0 0 0-.849-.154q-.52 0-.888.193-.366.193-.617.501a2 2 0 0 0-.347.695 2.7 2.7 0 0 0-.116.791q0 .386.077.618l-2.431-.097a2.5 2.5 0 0 1-.078-.424 5 5 0 0 1-.019-.444q0-.772.29-1.505.289-.754.849-1.312.56-.579 1.37-.927.83-.347 1.91-.347 1.119 0 1.968.328a4.4 4.4 0 0 1 1.428.868q.58.522.869 1.216.29.695.289 1.428 0 1.158-.521 1.987a5.2 5.2 0 0 1-1.39 1.428l-.79.56a2.8 2.8 0 0 0-.772.83q-.27.444-.27 1.042v.116zm-.443 2.798q0-.637.443-1.081a1.44 1.44 0 0 1 1.081-.463q.637 0 1.08.463.465.444.464 1.08 0 .637-.463 1.081a1.47 1.47 0 0 1-1.081.444 1.47 1.47 0 0 1-1.08-.444 1.47 1.47 0 0 1-.444-1.08"/></svg>